<mxfile host="app.diagrams.net" modified="2021-05-27T19:08:04.224Z" agent="5.0 (Windows NT 10.0; Win64; x64) AppleWebKit/537.36 (KHTML, like Gecko) Chrome/90.0.4430.212 Safari/537.36 Edg/90.0.818.66" etag="4HpHfNkxkqvQPljeQKtM" version="14.7.2" type="github">
  <diagram id="RCAkzz-6jkVYdmTiBrgX" name="Page-1">
    <mxGraphModel dx="1209" dy="663" grid="1" gridSize="10" guides="1" tooltips="1" connect="1" arrows="1" fold="1" page="1" pageScale="1" pageWidth="827" pageHeight="1169" math="0" shadow="0">
      <root>
        <mxCell id="0" />
        <mxCell id="1" parent="0" />
        <mxCell id="AD0exktpV1l-wwlqE403-2" value="" style="ellipse;html=1;shape=endState;fillColor=#000000;strokeColor=#ff0000;" parent="1" vertex="1">
          <mxGeometry x="370" y="10" width="60" height="60" as="geometry" />
        </mxCell>
        <mxCell id="AD0exktpV1l-wwlqE403-5" value="" style="endArrow=classic;html=1;" parent="1" edge="1">
          <mxGeometry width="50" height="50" relative="1" as="geometry">
            <mxPoint x="400" y="70" as="sourcePoint" />
            <mxPoint x="400" y="120" as="targetPoint" />
          </mxGeometry>
        </mxCell>
        <mxCell id="AD0exktpV1l-wwlqE403-6" value="Ввод A" style="rounded=1;whiteSpace=wrap;html=1;arcSize=50;fontSize=20;" parent="1" vertex="1">
          <mxGeometry x="340" y="120" width="120" height="40" as="geometry" />
        </mxCell>
        <mxCell id="AD0exktpV1l-wwlqE403-7" value="" style="endArrow=classic;html=1;" parent="1" edge="1">
          <mxGeometry width="50" height="50" relative="1" as="geometry">
            <mxPoint x="399.5" y="160" as="sourcePoint" />
            <mxPoint x="400" y="200" as="targetPoint" />
          </mxGeometry>
        </mxCell>
        <mxCell id="AD0exktpV1l-wwlqE403-8" value="" style="rhombus;whiteSpace=wrap;html=1;fontSize=20;strokeColor=#000000;" parent="1" vertex="1">
          <mxGeometry x="360" y="200" width="80" height="80" as="geometry" />
        </mxCell>
        <mxCell id="AD0exktpV1l-wwlqE403-9" value="" style="endArrow=none;html=1;fontSize=20;" parent="1" edge="1">
          <mxGeometry width="50" height="50" relative="1" as="geometry">
            <mxPoint x="440" y="239.5" as="sourcePoint" />
            <mxPoint x="520" y="240" as="targetPoint" />
            <Array as="points">
              <mxPoint x="470" y="239.5" />
            </Array>
          </mxGeometry>
        </mxCell>
        <mxCell id="AD0exktpV1l-wwlqE403-10" value="" style="endArrow=classic;html=1;fontSize=20;" parent="1" edge="1">
          <mxGeometry width="50" height="50" relative="1" as="geometry">
            <mxPoint x="520" y="240" as="sourcePoint" />
            <mxPoint x="520" y="280" as="targetPoint" />
          </mxGeometry>
        </mxCell>
        <mxCell id="AD0exktpV1l-wwlqE403-11" value="S = 0" style="rounded=1;whiteSpace=wrap;html=1;arcSize=50;fontSize=20;" parent="1" vertex="1">
          <mxGeometry x="220" y="280" width="120" height="40" as="geometry" />
        </mxCell>
        <mxCell id="AD0exktpV1l-wwlqE403-12" value="" style="endArrow=none;html=1;fontSize=20;" parent="1" edge="1">
          <mxGeometry width="50" height="50" relative="1" as="geometry">
            <mxPoint x="280" y="240" as="sourcePoint" />
            <mxPoint x="360" y="240" as="targetPoint" />
          </mxGeometry>
        </mxCell>
        <mxCell id="AD0exktpV1l-wwlqE403-13" value="" style="endArrow=classic;html=1;fontSize=20;" parent="1" edge="1">
          <mxGeometry width="50" height="50" relative="1" as="geometry">
            <mxPoint x="280" y="240" as="sourcePoint" />
            <mxPoint x="280" y="280" as="targetPoint" />
          </mxGeometry>
        </mxCell>
        <mxCell id="AD0exktpV1l-wwlqE403-14" value="Вывод &quot;Неверный размер списка&quot;" style="rounded=1;whiteSpace=wrap;html=1;arcSize=50;fontSize=14;" parent="1" vertex="1">
          <mxGeometry x="440" y="280" width="160" height="40" as="geometry" />
        </mxCell>
        <mxCell id="AD0exktpV1l-wwlqE403-16" value="" style="endArrow=classic;html=1;fontSize=14;" parent="1" edge="1">
          <mxGeometry width="50" height="50" relative="1" as="geometry">
            <mxPoint x="280" y="320" as="sourcePoint" />
            <mxPoint x="280" y="360" as="targetPoint" />
          </mxGeometry>
        </mxCell>
        <mxCell id="AD0exktpV1l-wwlqE403-17" value="" style="ellipse;html=1;shape=endState;fillColor=#000000;strokeColor=#ff0000;" parent="1" vertex="1">
          <mxGeometry x="490" y="360" width="60" height="60" as="geometry" />
        </mxCell>
        <mxCell id="AD0exktpV1l-wwlqE403-19" value="" style="endArrow=classic;html=1;fontSize=14;" parent="1" edge="1">
          <mxGeometry width="50" height="50" relative="1" as="geometry">
            <mxPoint x="520" y="320" as="sourcePoint" />
            <mxPoint x="520" y="360" as="targetPoint" />
          </mxGeometry>
        </mxCell>
        <mxCell id="AD0exktpV1l-wwlqE403-20" value="" style="rhombus;whiteSpace=wrap;html=1;fontSize=20;strokeColor=#000000;" parent="1" vertex="1">
          <mxGeometry x="240" y="360" width="80" height="80" as="geometry" />
        </mxCell>
        <mxCell id="AD0exktpV1l-wwlqE403-23" value="" style="endArrow=none;html=1;fontSize=14;" parent="1" edge="1">
          <mxGeometry width="50" height="50" relative="1" as="geometry">
            <mxPoint x="160" y="400" as="sourcePoint" />
            <mxPoint x="240" y="400" as="targetPoint" />
          </mxGeometry>
        </mxCell>
        <mxCell id="AD0exktpV1l-wwlqE403-24" value="" style="endArrow=classic;html=1;fontSize=14;" parent="1" edge="1">
          <mxGeometry width="50" height="50" relative="1" as="geometry">
            <mxPoint x="159.5" y="400" as="sourcePoint" />
            <mxPoint x="160" y="440" as="targetPoint" />
          </mxGeometry>
        </mxCell>
        <mxCell id="AD0exktpV1l-wwlqE403-25" value="Вывод S" style="rounded=1;whiteSpace=wrap;html=1;arcSize=50;fontSize=14;" parent="1" vertex="1">
          <mxGeometry x="80" y="440" width="160" height="40" as="geometry" />
        </mxCell>
        <mxCell id="AD0exktpV1l-wwlqE403-26" value="" style="endArrow=classic;html=1;fontSize=14;" parent="1" edge="1">
          <mxGeometry width="50" height="50" relative="1" as="geometry">
            <mxPoint x="160" y="480" as="sourcePoint" />
            <mxPoint x="160" y="520" as="targetPoint" />
          </mxGeometry>
        </mxCell>
        <mxCell id="AD0exktpV1l-wwlqE403-27" value="" style="ellipse;html=1;shape=endState;fillColor=#000000;strokeColor=#ff0000;" parent="1" vertex="1">
          <mxGeometry x="130" y="520" width="60" height="60" as="geometry" />
        </mxCell>
        <mxCell id="AD0exktpV1l-wwlqE403-28" value="" style="endArrow=classic;html=1;fontSize=14;" parent="1" edge="1">
          <mxGeometry width="50" height="50" relative="1" as="geometry">
            <mxPoint x="400" y="400" as="sourcePoint" />
            <mxPoint x="400" y="440" as="targetPoint" />
          </mxGeometry>
        </mxCell>
        <mxCell id="AD0exktpV1l-wwlqE403-29" value="" style="endArrow=none;html=1;fontSize=14;" parent="1" edge="1">
          <mxGeometry width="50" height="50" relative="1" as="geometry">
            <mxPoint x="320" y="400" as="sourcePoint" />
            <mxPoint x="400" y="400" as="targetPoint" />
          </mxGeometry>
        </mxCell>
        <mxCell id="AD0exktpV1l-wwlqE403-32" value="" style="edgeStyle=orthogonalEdgeStyle;rounded=0;orthogonalLoop=1;jettySize=auto;html=1;fontSize=14;" parent="1" source="AD0exktpV1l-wwlqE403-30" target="AD0exktpV1l-wwlqE403-31" edge="1">
          <mxGeometry relative="1" as="geometry" />
        </mxCell>
        <mxCell id="AD0exktpV1l-wwlqE403-30" value="" style="rhombus;whiteSpace=wrap;html=1;fontSize=20;strokeColor=#000000;" parent="1" vertex="1">
          <mxGeometry x="360" y="440" width="80" height="80" as="geometry" />
        </mxCell>
        <mxCell id="AD0exktpV1l-wwlqE403-31" value="S += item" style="rounded=1;whiteSpace=wrap;html=1;arcSize=50;fontSize=20;" parent="1" vertex="1">
          <mxGeometry x="340" y="560" width="120" height="40" as="geometry" />
        </mxCell>
        <mxCell id="AD0exktpV1l-wwlqE403-33" value="" style="endArrow=none;html=1;fontSize=14;" parent="1" edge="1">
          <mxGeometry width="50" height="50" relative="1" as="geometry">
            <mxPoint x="400" y="640" as="sourcePoint" />
            <mxPoint x="399.5" y="600" as="targetPoint" />
          </mxGeometry>
        </mxCell>
        <mxCell id="AD0exktpV1l-wwlqE403-34" value="" style="endArrow=none;html=1;fontSize=14;" parent="1" edge="1">
          <mxGeometry width="50" height="50" relative="1" as="geometry">
            <mxPoint x="280" y="640" as="sourcePoint" />
            <mxPoint x="400" y="640" as="targetPoint" />
          </mxGeometry>
        </mxCell>
        <mxCell id="AD0exktpV1l-wwlqE403-35" value="" style="endArrow=classic;html=1;fontSize=14;entryX=0.5;entryY=1;entryDx=0;entryDy=0;" parent="1" target="AD0exktpV1l-wwlqE403-20" edge="1">
          <mxGeometry width="50" height="50" relative="1" as="geometry">
            <mxPoint x="280" y="640" as="sourcePoint" />
            <mxPoint x="330" y="590" as="targetPoint" />
          </mxGeometry>
        </mxCell>
        <mxCell id="AD0exktpV1l-wwlqE403-36" value="len(A) != 10" style="text;html=1;strokeColor=none;fillColor=none;align=center;verticalAlign=middle;whiteSpace=wrap;rounded=0;fontSize=14;" parent="1" vertex="1">
          <mxGeometry x="430" y="210" width="90" height="20" as="geometry" />
        </mxCell>
        <mxCell id="AD0exktpV1l-wwlqE403-37" value="for item in A" style="text;html=1;strokeColor=none;fillColor=none;align=center;verticalAlign=middle;whiteSpace=wrap;rounded=0;fontSize=14;" parent="1" vertex="1">
          <mxGeometry x="310" y="370" width="100" height="20" as="geometry" />
        </mxCell>
      </root>
    </mxGraphModel>
  </diagram>
</mxfile>
